<?xml version="1.0" encoding="UTF-8"?>
<svg version="1.1" viewBox="0 0 32 32" xmlns="http://www.w3.org/2000/svg">
    <g transform="translate(-65.98 -284.9)">
        <path d="m97.98 300.9c-2.197-1.468-4.331-2.746-6.33-3.726-3.99-2.099-7.52-3.146-10.14-1.182-0.0078 7e-3 -0.02334 0.0155-0.03111 0.0233-0.02334 0.0155-0.04667 0.0389-0.07 0.0544-0.0078 8e-3 -0.01555 0.0155-0.03111 0.0233-0.1276 0.0957-0.2504 0.1991-0.3694 0.3096 0.07-0.3376 0.1229-0.6642 0.1486-0.9768 0-0.0311 7e-3 -0.0622 0.0078-0.0964-0.0023-8e-3 -0.0045-0.0155-0.0041-0.0233-0.0017-8e-3 -3.89e-4 -0.0155 0-0.0233 0.03889-0.3827 0.02334-0.756-0.02334-1.113-0.0054-0.0155-0.0078-0.0311-0.0078-0.0389-0.0078-0.0311-7e-3 -0.0544-0.01556-0.0848 0-8e-3 -0.0078-0.0233-0.0078-0.0389-0.4674-3.245-3.705-5.001-8.011-6.338-2.107-0.721-4.519-1.325-7.11-1.841l0.0078 8e-3c0.5157 2.591 1.121 5.004 1.841 7.11 1.264 4.07 2.904 7.183 5.82 7.906-2.917 0.7233-4.556 3.839-5.82 7.91-0.7202 2.107-1.325 4.519-1.841 7.11l-0.0078 0.0155c2.592-0.5157 5.004-1.124 7.11-1.845 4.306-1.337 7.543-3.09 8.011-6.334 0-8e-3 0.0078-0.0311 0.0078-0.0389 0.0049-0.0311 0.0041-0.0544 0.01556-0.0848 2.33e-4 -8e-3 0.0028-0.0233 0.0078-0.0389 0.04667-0.3578 0.06222-0.7265 0.02334-1.109-3.89e-4 -7e-3 -0.0017-0.0155 0-0.0233-3.89e-4 -6e-3 0.0019-0.0155 0.0041-0.0233-0.0013-0.0311-0.0078-0.0622-0.0078-0.0964-0.02334-0.2769-0.06222-0.5639-0.1244-0.8602 0.1097 0.0995 0.2217 0.1937 0.3376 0.2816 0.03111 0.0233 0.06222 0.0544 0.09645 0.0777 0.0078 7e-3 0.02334 0.0155 0.03111 0.0233 2.625 1.964 6.155 0.9177 10.14-1.182 1.999-0.98 4.133-2.258 6.33-3.726z" fill="#b1413d"/>
        <circle cx="78.46" cy="300.9" r="4" fill="#f5b95a"/>
    </g>
</svg>
